<?xml version="1.0" standalone="no"?>
<!DOCTYPE svg PUBLIC "-//W3C//DTD SVG 20010904//EN"
 "http://www.w3.org/TR/2001/REC-SVG-20010904/DTD/svg10.dtd">
<svg version="1.0" xmlns="http://www.w3.org/2000/svg"
 width="1500.000000pt" height="1500.000000pt" viewBox="0 0 1500.000000 1500.000000"
 preserveAspectRatio="xMidYMid meet">
<metadata>
Created by potrace 1.14, written by Peter Selinger 2001-2017
</metadata>
<g transform="translate(0.000000,1500.000000) scale(0.100000,-0.100000)"
fill="#000000" stroke="none">
<path d="M0 7500 l0 -7500 7500 0 7500 0 0 7500 0 7500 -7500 0 -7500 0 0
-7500z m3897 2622 c391 -977 496 -1256 590 -1562 2 -8 38 86 79 210 45 137
248 660 521 1343 l447 1117 363 0 363 0 4 -22 c5 -24 207 -3462 206 -3510 l0
-28 -405 0 c-223 0 -405 1 -405 3 0 1 -9 196 -20 432 -14 299 -20 600 -21 990
0 308 -3 553 -6 545 -127 -344 -179 -479 -243 -635 -64 -156 -468 -1114 -542
-1288 l-21 -47 -330 2 -330 3 -204 470 c-224 517 -268 625 -463 1140 -73 193
-137 354 -141 360 -5 5 -9 -248 -9 -565 0 -328 -7 -732 -15 -940 -8 -201 -15
-389 -15 -417 l0 -53 -400 0 c-313 0 -400 3 -400 13 0 30 200 3429 206 3485
l6 62 371 0 372 0 442 -1108z m4986 1066 c14 -42 1269 -3466 1282 -3500 7 -17
-18 -18 -432 -18 l-440 0 -97 318 c-54 174 -113 368 -132 430 l-35 112 -574 0
-574 0 -75 -232 c-41 -128 -103 -322 -137 -430 l-63 -198 -428 0 c-235 0 -428
3 -428 8 0 4 302 805 672 1780 l673 1772 386 0 387 0 15 -42z m3617 35 c0 -9
-99 -581 -105 -610 l-5 -23 -410 0 -410 0 0 -1460 0 -1460 -435 0 -435 0 0
1460 0 1460 -420 0 -420 0 0 320 0 320 1320 0 c726 0 1320 -3 1320 -7z m-7290
-3897 c535 -91 827 -329 917 -746 14 -65 18 -125 17 -255 -1 -149 -4 -182 -27
-267 -64 -243 -236 -448 -480 -574 l-89 -46 54 -36 c199 -133 352 -340 538
-726 61 -126 257 -577 373 -858 l16 -38 -465 0 -465 0 -40 88 c-23 48 -115
259 -205 469 -186 434 -266 599 -352 729 -110 165 -186 215 -334 222 l-88 4 0
-756 0 -756 -435 0 -435 0 0 1780 0 1779 93 4 c50 2 367 3 702 2 511 -2 625
-5 705 -19z m2520 -1766 l0 -1780 -435 0 -435 0 0 1780 0 1780 435 0 435 0 0
-1780z m1648 1293 c149 -269 285 -518 303 -555 18 -38 36 -68 40 -68 5 0 238
412 553 982 l71 128 473 0 474 0 -28 -47 c-15 -27 -239 -406 -497 -843 -258
-437 -471 -798 -473 -801 -2 -4 244 -424 546 -934 303 -510 550 -929 550 -931
0 -2 -215 -3 -477 -2 l-478 3 -278 495 c-153 272 -312 557 -353 633 -42 75
-79 137 -82 137 -4 0 -27 -39 -52 -86 -24 -48 -182 -332 -351 -633 l-305 -546
-477 -3 c-262 -1 -477 0 -477 3 0 6 1054 1791 1086 1841 14 21 -45 124 -934
1627 l-52 87 474 0 473 0 271 -487z"/>
<path d="M8365 10043 c-73 -239 -254 -791 -280 -855 -7 -17 15 -18 369 -18
207 0 376 3 376 8 0 4 -42 133 -93 287 -52 154 -133 408 -182 565 -48 157 -91
288 -95 293 -3 4 -46 -122 -95 -280z"/>
<path d="M4580 6305 l0 -475 128 0 c200 0 312 34 406 120 109 101 152 295 110
497 -26 129 -82 214 -175 270 -83 50 -152 63 -321 63 l-148 0 0 -475z"/>
</g>
</svg>
